<svg width="74" height="51" viewBox="0 0 74 51" fill="none" xmlns="http://www.w3.org/2000/svg">
<path d="M73.8395 47.297L50.1963 0.953125H30.402L54.595 48.3967C55.0663 49.2607 55.9304 49.8105 56.9515 49.8105H72.2685C73.2111 49.8105 73.9966 48.9465 73.9966 48.0039C73.9966 47.7683 73.9181 47.5326 73.8395 47.297Z" fill="#474747"/>
<path d="M47.8399 47.2191L32.837 17.8418H13.0427L28.5954 48.3188C29.0667 49.1828 29.9307 49.7326 30.9519 49.7326H46.2689C47.29 49.7326 48.0755 48.8686 47.997 47.926C47.997 47.6904 47.9184 47.4547 47.8399 47.2191Z" fill="#474747"/>
<path fill-rule="evenodd" clip-rule="evenodd" d="M9.11527 50.0472C14.1424 50.0472 18.2269 45.9627 18.2269 40.9355C18.2269 35.9084 14.1424 31.8239 9.11527 31.8239C4.08814 31.7453 0.00360107 35.8299 0.00360107 40.857C0.00360107 45.8841 4.08814 50.0472 9.11527 50.0472Z" fill="#474747"/>
</svg>
